Coordinates
version=1
nRows=28
nColumns=33
inDegrees=yes

Units are S.I. units (second, meters, Newtons, ...)
Angles are in degrees.

endheader
time	ground_thorax_rot_x	ground_thorax_rot_y	ground_thorax_rot_z	ground_thorax_tx	ground_thorax_ty	ground_thorax_tz	clav_prot_r	clav_elev_r	scapula_abduction_r	scapula_elevation_r	scapula_upward_rot_r	scapula_winging_r	shoulder_elv_r	plane_of_elev_r	axial_rot_r	elbow_flexion_r	pro_sup_r	wrist_flex_r	wrist_dev_r	clav_prot_l	clav_elev_l	scapula_abduction_l	scapula_elevation_l	scapula_upward_rot_l	scapula_winging_l	shoulder_elv_l	plane_of_elev_l	axial_rot_l	elbow_flexion_l	pro_sup_l	wrist_flex_l	wrist_dev_l	
0.0100	3.219326	-6.413061	8.920735	-0.113416	1.033407	0.013811	6.585803	-8.955611	11.477503	-1.973492	-0.027648	-1.841347	35.960566	13.467961	8.739496	44.543243	42.433523	8.569642	21.235286	6.376070	-13.664926	-7.085684	0.787839	-15.522300	-3.017257	47.951193	10.830981	-7.888138	56.148157	29.634063	14.858084	-6.222192	
0.0200	3.225318	-6.356224	8.868620	-0.113181	1.033713	0.013782	6.642796	-8.960210	11.703013	-2.087958	0.235548	-1.937253	35.933191	13.775978	8.514619	43.915697	42.357553	8.407799	21.340182	6.464349	-13.731152	-7.266917	0.903631	-15.403297	-2.970209	47.875508	11.137715	-7.966344	56.018260	29.375287	14.807840	-6.261450	
0.0300	3.239740	-6.298374	8.832464	-0.112946	1.033960	0.013749	6.710886	-8.930479	11.947944	-2.172834	0.503806	-2.053184	35.891357	14.085336	8.256594	43.307095	42.258186	8.261820	21.445205	6.567911	-13.760851	-7.475895	0.985675	-15.279954	-2.897518	47.763674	11.468581	-8.050335	55.888948	28.995610	14.730859	-6.299759	
0.0400	3.234856	-6.237460	8.788816	-0.112729	1.034150	0.013703	6.793072	-8.868672	12.222186	-2.233597	0.785481	-2.192576	35.825337	14.416915	7.947820	42.698052	42.134285	8.129856	21.551500	6.684744	-13.745483	-7.714763	1.035493	-15.131635	-2.794633	47.627141	11.842075	-8.121421	55.754795	28.468366	14.618338	-6.333078	
0.0500	3.217559	-6.177644	8.740131	-0.112543	1.034300	0.013646	6.888995	-8.786826	12.524746	-2.280116	1.077919	-2.350479	35.749354	14.765992	7.595612	42.095150	41.998182	8.012633	21.651933	6.812346	-13.694911	-7.978503	1.061470	-14.960807	-2.667266	47.472670	12.249457	-8.186726	55.618313	27.813378	14.463977	-6.357195	
0.0600	3.190496	-6.121280	8.687620	-0.112377	1.034446	0.013576	6.993158	-8.711875	12.842296	-2.331902	1.368833	-2.511339	35.693499	15.116988	7.222674	41.522990	41.880455	7.913245	21.730236	6.937878	-13.630994	-8.242196	1.080145	-14.778199	-2.533916	47.318384	12.671463	-8.251569	55.505490	27.100244	14.262784	-6.366182	
0.0700	3.156937	-6.069812	8.640056	-0.112238	1.034588	0.013491	7.105726	-8.638959	13.174031	-2.384034	1.656928	-2.676583	35.655378	15.469932	6.833446	40.987529	41.780934	7.830502	21.787599	7.059164	-13.555986	-8.500969	1.091938	-14.587830	-2.397501	47.164280	13.104054	-8.318634	55.419961	26.342494	14.013111	-6.363334	
0.0800	3.124912	-6.025990	8.603458	-0.112123	1.034727	0.013391	7.235052	-8.565447	13.530314	-2.430792	1.934150	-2.850767	35.650386	15.818301	6.428042	40.510393	41.718900	7.770881	21.810137	7.170979	-13.473963	-8.744356	1.098196	-14.395897	-2.263739	47.009212	13.541768	-8.400622	55.369406	25.541082	13.675797	-6.342982	
0.0900	3.095978	-5.988225	8.583538	-0.112026	1.034869	0.013277	7.373820	-8.489022	13.898895	-2.470637	2.201792	-3.030195	35.673959	16.160819	6.019643	40.096555	41.685271	7.731007	21.807723	7.268719	-13.392581	-8.962790	1.103703	-14.208216	-2.139738	46.856000	13.979705	-8.489763	55.361208	24.735453	13.275895	-6.314678	
0.1000	3.073233	-5.961114	8.567648	-0.111938	1.035016	0.013151	7.518996	-8.411107	14.278866	-2.508169	2.468086	-3.214588	35.728199	16.506667	5.609700	39.746422	41.675716	7.709752	21.785927	7.348308	-13.315759	-9.150124	1.113335	-14.022407	-2.029318	46.710732	14.421475	-8.578088	55.399323	23.943621	12.820727	-6.282665	
0.1100	3.062422	-5.944319	8.561710	-0.111857	1.035179	0.013019	7.655588	-8.334135	14.647677	-2.548444	2.739715	-3.394901	35.804399	16.855038	5.218032	39.455685	41.666095	7.702721	21.767374	7.406294	-13.253428	-9.298430	1.133410	-13.845322	-1.939924	46.577088	14.861769	-8.651837	55.488373	23.225586	12.371136	-6.262015	
0.1200	3.060507	-5.947259	8.542271	-0.111787	1.035356	0.012887	7.790850	-8.258951	15.024109	-2.597117	3.028672	-3.578776	35.903071	17.226926	4.830825	39.205426	41.654506	7.711037	21.756835	7.440109	-13.203145	-9.407006	1.167664	-13.663871	-1.870333	46.463166	15.312103	-8.706215	55.614523	22.569335	11.911275	-6.249330	
0.1300	3.072817	-5.975777	8.515839	-0.111722	1.035560	0.012754	7.924714	-8.191984	15.406398	-2.658417	3.330572	-3.763193	36.032155	17.616978	4.458426	38.994789	41.634226	7.746215	21.770367	7.436082	-13.176438	-9.449498	1.223001	-13.488099	-1.835754	46.373894	15.762765	-8.738498	55.786162	22.033587	11.459188	-6.247976	
0.1400	3.096016	-6.031944	8.485498	-0.111674	1.035773	0.012618	8.071158	-8.120183	15.817723	-2.720491	3.645491	-3.962065	36.184055	18.032191	4.078527	38.811470	41.599042	7.813925	21.811597	7.398797	-13.160379	-9.435459	1.289615	-13.312055	-1.826977	46.300032	16.221445	-8.757793	55.984759	21.562814	10.989673	-6.251768	
0.1500	3.141531	-6.122598	8.476834	-0.111659	1.035956	0.012470	8.271222	-8.002831	16.318939	-2.741065	3.959832	-4.213506	36.362781	18.466111	3.647571	38.659738	41.524242	7.965165	21.912106	7.317234	-13.140325	-9.344345	1.351189	-13.141749	-1.846304	46.211842	16.695127	-8.791240	56.192639	21.083738	10.435720	-6.251712	
0.1600	3.203729	-6.239658	8.496972	-0.111686	1.036094	0.012311	8.530024	-7.833764	16.915704	-2.712365	4.268636	-4.521715	36.562214	18.914823	3.154969	38.544842	41.417926	8.180253	22.051370	7.207205	-13.102899	-9.204604	1.396664	-12.972263	-1.877134	46.100097	17.187719	-8.844845	56.394923	20.517905	9.781694	-6.240087	
0.1700	3.286254	-6.393684	8.545293	-0.111750	1.036193	0.012139	8.877256	-7.610895	17.650270	-2.626124	4.555424	-4.903899	36.804751	19.372427	2.574880	38.482604	41.274504	8.480018	22.255059	7.051837	-13.054980	-8.985462	1.430420	-12.809691	-1.934319	45.966794	17.695064	-8.922703	56.593175	19.831053	8.993042	-6.207016	
0.1800	3.377683	-6.560519	8.614868	-0.111828	1.036308	0.011965	9.253304	-7.395807	18.423842	-2.537747	4.819636	-5.299180	37.095152	19.822804	2.009938	38.491243	41.152527	8.740587	22.436025	6.875376	-13.020541	-8.726051	1.470712	-12.662292	-2.012617	45.848287	18.196069	-8.995021	56.813681	19.126351	8.189291	-6.162202	
0.1900	3.474468	-6.734572	8.696587	-0.111922	1.036434	0.011795	9.653504	-7.195296	19.230150	-2.454478	5.064054	-5.702759	37.430685	20.278570	1.488903	38.558129	41.076507	8.898076	22.544562	6.685479	-12.996770	-8.440262	1.515946	-12.527255	-2.105678	45.751046	18.699448	-9.054570	57.054672	18.414053	7.376351	-6.106701	
0.2000	3.566595	-6.893766	8.779546	-0.112022	1.036578	0.011650	10.019688	-7.058935	19.977344	-2.424730	5.298418	-6.061331	37.796611	20.756853	1.163046	38.670581	41.150632	8.705451	22.389548	6.519981	-12.981306	-8.191620	1.560841	-12.408481	-2.188426	45.700601	19.212920	-9.056753	57.331819	17.793021	6.653885	-6.052554	
0.2100	3.653959	-7.045042	8.855122	-0.112136	1.036716	0.011535	10.382286	-6.964410	20.710886	-2.424687	5.513087	-6.400988	38.194391	21.282339	1.016353	38.822666	41.379742	8.114161	21.919822	6.374697	-12.963169	-7.974297	1.597246	-12.301220	-2.258604	45.691873	19.751596	-9.010751	57.632545	17.214058	5.952979	-5.995363	
0.2200	3.736186	-7.171583	8.930475	-0.112256	1.036842	0.011466	10.722626	-6.928581	21.396486	-2.467226	5.702802	-6.702706	38.604989	21.869484	1.146852	38.996281	41.789305	6.863578	20.977076	6.271307	-12.939534	-7.824577	1.620372	-12.208463	-2.301359	45.728440	20.313560	-8.907388	57.962733	16.717487	5.309349	-5.944758	
0.2300	3.810692	-7.276341	8.991852	-0.112377	1.036973	0.011368	11.022457	-6.871615	22.024719	-2.500217	5.915744	-6.989985	39.073374	22.432267	1.110346	39.212691	41.885616	6.000005	20.375461	6.186346	-12.913511	-7.705871	1.639264	-12.118572	-2.331238	45.782666	20.922513	-8.787185	58.282337	16.247026	4.650629	-5.894215	
0.2400	3.865664	-7.354117	9.033542	-0.112486	1.037130	0.011227	11.262297	-6.798689	22.569680	-2.533304	6.165161	-7.250110	39.597478	22.935022	0.822313	39.502255	41.603106	5.648242	20.293787	6.122888	-12.881909	-7.626866	1.655953	-12.020179	-2.343381	45.853697	21.573934	-8.652967	58.593122	15.827898	4.001606	-5.851775	
0.2500	3.899522	-7.413369	9.058053	-0.112564	1.037350	0.011008	11.429110	-6.684070	23.018674	-2.550988	6.470291	-7.485549	40.183227	23.322261	0.102008	39.903402	40.815230	6.291145	21.067242	6.059722	-12.856173	-7.553376	1.685014	-11.906755	-2.355135	45.924502	22.249020	-8.516806	58.895447	15.443526	3.355296	-5.818708	
0.2600	3.915480	-7.454531	9.075283	-0.112615	1.037614	0.010763	11.536128	-6.569015	23.388975	-2.583908	6.816976	-7.688986	40.768813	23.652949	-0.754839	40.382755	39.876233	7.201569	22.144221	6.012245	-12.826312	-7.513848	1.719634	-11.771208	-2.351659	45.996742	22.927119	-8.353601	59.211380	15.132818	2.758626	-5.807040	
0.2700	3.922009	-7.480991	9.092375	-0.112653	1.037923	0.010479	11.558923	-6.437148	23.652935	-2.627916	7.231774	-7.854828	41.345353	23.913741	-1.784267	40.919052	38.767722	8.650754	23.622269	5.979523	-12.794830	-7.505939	1.760919	-11.616351	-2.334801	46.057905	23.608188	-8.152350	59.534473	14.910475	2.230004	-5.816830	
0.2800	3.922974	-7.503102	9.123451	-0.112724	1.038210	0.010210	11.577473	-6.311028	23.919589	-2.682056	7.661182	-8.020120	41.872320	24.201851	-2.654565	41.472501	37.921827	9.667650	24.763640	5.981190	-12.731641	-7.560577	1.776451	-11.449023	-2.281443	46.118330	24.299632	-7.896823	59.868153	14.763401	1.708911	-5.847487	
